<svg xmlns="http://www.w3.org/2000/svg" width="24" height="24" viewBox="0 0 24 24" fill="none" stroke="currentColor" stroke-width="1.5" stroke-linecap="round" stroke-linejoin="round"><path d="M12 2a5 5 0 0 1 4.9 4 4.5 4.5 0 0 1 2.1 3.8 4.5 4.5 0 0 1-1.5 3.4A4 4 0 0 1 16 17.5V20a1 1 0 0 1-1 1h-2v-4"/><path d="M12 2a5 5 0 0 0-4.9 4A4.5 4.5 0 0 0 5 9.8a4.5 4.5 0 0 0 1.5 3.4A4 4 0 0 0 8 17.5V20a1 1 0 0 0 1 1h2v-4"/><path d="M12 2v7"/><path d="M9 9h6"/><path d="M8 13c1 0 2-.5 3-1.5"/><path d="M16 13c-1 0-2-.5-3-1.5"/></svg>
